<svg width="48" height="48" viewBox="0 0 48 48" fill="none" xmlns="http://www.w3.org/2000/svg">
<path d="M0 12C0 5.37258 5.37258 0 12 0H36C42.6274 0 48 5.37258 48 12V36C48 42.6274 42.6274 48 36 48H12C5.37258 48 0 42.6274 0 36V12Z" fill="#DDDEE1"/>
<g clip-path="url(#clip0_1_7548)">
<path fill-rule="evenodd" clip-rule="evenodd" d="M9.22754 29.2289L13.205 25.2514L9.22754 21.2739L12.5421 17.9594H20.4971L26.4633 11.9932H35.744V21.2739L29.7778 27.2402V35.1951L26.4633 38.5097L22.4858 34.5322L18.5083 38.5097L14.8655 34.8668L20.8316 28.9007L18.8429 26.912L12.8767 32.8781L9.22754 29.2289ZM31.1036 19.9482C30.1883 20.8635 28.7044 20.8635 27.7891 19.9482C26.8738 19.033 26.8738 17.549 27.7891 16.6337C28.7044 15.7184 30.1883 15.7184 31.1036 16.6337C32.0189 17.549 32.0189 19.033 31.1036 19.9482Z" fill="#101214"/>
</g>
<defs>
<clipPath id="clip0_1_7548">
<rect width="45" height="45" fill="white" transform="translate(1.5 1.5)"/>
</clipPath>
</defs>
</svg>
