<svg width="48" height="48" viewBox="0 0 48 48" fill="none" xmlns="http://www.w3.org/2000/svg">
<path d="M0 12C0 5.37258 5.37258 0 12 0H36C42.6274 0 48 5.37258 48 12V36C48 42.6274 42.6274 48 36 48H12C5.37258 48 0 42.6274 0 36V12Z" fill="#94C748"/>
<path d="M11.8496 20.8806C11.8496 26.2677 15.3376 30.8022 20.1434 32.4299V38.2433C20.1434 38.8634 20.5309 39.251 21.151 39.251H26.8482C27.4683 39.251 27.8558 38.8634 27.8558 38.2433V28.5931C27.8558 26.384 26.3056 24.95 24.2903 24.95C21.6161 24.95 19.9496 23.0897 19.9496 20.8419C19.9496 18.594 21.5774 16.7725 23.9802 16.7725C26.3831 16.7725 28.0496 18.5553 28.0496 20.8419C28.0496 22.1983 27.3908 23.4385 26.3831 24.1749C27.9721 24.9112 29.0573 26.4227 29.0573 28.5931V31.9648C33.2429 30.027 36.1496 25.8026 36.1496 20.8806C36.1496 14.1758 30.84 8.75 23.9802 8.75C17.1204 8.75 11.8496 14.1758 11.8496 20.8806Z" fill="#101214"/>
</svg>
