<svg width="300" height="300" viewBox="0 0 300 300" fill="none" xmlns="http://www.w3.org/2000/svg">
<path d="M78 152V48H222V192H118" stroke="url(#paint0_linear_3334_113)" stroke-width="14" stroke-linecap="square"/>
<path d="M124.4 148V92H135.12L168.16 132.32H162.96V92H175.76V148H165.12L132 107.68H137.2V148H124.4Z" fill="url(#paint1_linear_3334_113)"/>
<path d="M86.5 172L88.3031 179.879L95 182L88.3031 184.121L86.5 192L84.6969 184.121L78 182L84.6969 179.879L86.5 172Z" fill="url(#paint2_linear_3334_113)"/>
<path d="M62.6879 235V217.5H65.3629L76.3379 230.975H75.0129V217.5H78.2379V235H75.5629L64.5879 221.525H65.9129V235H62.6879ZM88.3771 235.175C87.0105 235.175 85.7938 234.883 84.7271 234.3C83.6605 233.7 82.8188 232.883 82.2021 231.85C81.5855 230.817 81.2771 229.642 81.2771 228.325C81.2771 226.992 81.5855 225.817 82.2021 224.8C82.8188 223.767 83.6605 222.958 84.7271 222.375C85.7938 221.792 87.0105 221.5 88.3771 221.5C89.7605 221.5 90.9855 221.792 92.0521 222.375C93.1355 222.958 93.9771 223.758 94.5771 224.775C95.1938 225.792 95.5021 226.975 95.5021 228.325C95.5021 229.642 95.1938 230.817 94.5771 231.85C93.9771 232.883 93.1355 233.7 92.0521 234.3C90.9855 234.883 89.7605 235.175 88.3771 235.175ZM88.3771 232.5C89.1438 232.5 89.8271 232.333 90.4271 232C91.0271 231.667 91.4938 231.183 91.8271 230.55C92.1771 229.917 92.3521 229.175 92.3521 228.325C92.3521 227.458 92.1771 226.717 91.8271 226.1C91.4938 225.467 91.0271 224.983 90.4271 224.65C89.8271 224.317 89.1521 224.15 88.4021 224.15C87.6355 224.15 86.9521 224.317 86.3521 224.65C85.7688 224.983 85.3021 225.467 84.9521 226.1C84.6021 226.717 84.4271 227.458 84.4271 228.325C84.4271 229.175 84.6021 229.917 84.9521 230.55C85.3021 231.183 85.7688 231.667 86.3521 232C86.9521 232.333 87.6271 232.5 88.3771 232.5ZM98.2404 235V221.65H101.215V225.325L100.865 224.25C101.265 223.35 101.89 222.667 102.74 222.2C103.607 221.733 104.682 221.5 105.965 221.5V224.475C105.832 224.442 105.707 224.425 105.59 224.425C105.474 224.408 105.357 224.4 105.24 224.4C104.057 224.4 103.115 224.75 102.415 225.45C101.715 226.133 101.365 227.158 101.365 228.525V235H98.2404ZM113.88 235.175C112.413 235.175 111.28 234.8 110.48 234.05C109.68 233.283 109.28 232.158 109.28 230.675V218.7H112.405V230.6C112.405 231.233 112.563 231.725 112.88 232.075C113.213 232.425 113.671 232.6 114.255 232.6C114.955 232.6 115.538 232.417 116.005 232.05L116.88 234.275C116.513 234.575 116.063 234.8 115.53 234.95C114.996 235.1 114.446 235.175 113.88 235.175ZM107.08 224.25V221.75H115.98V224.25H107.08ZM126.775 221.5C127.842 221.5 128.792 221.708 129.625 222.125C130.475 222.542 131.142 223.183 131.625 224.05C132.109 224.9 132.35 226 132.35 227.35V235H129.225V227.75C129.225 226.567 128.942 225.683 128.375 225.1C127.825 224.517 127.05 224.225 126.05 224.225C125.317 224.225 124.667 224.375 124.1 224.675C123.534 224.975 123.092 225.425 122.775 226.025C122.475 226.608 122.325 227.35 122.325 228.25V235H119.2V216.45H122.325V225.25L121.65 224.15C122.117 223.3 122.792 222.65 123.675 222.2C124.575 221.733 125.609 221.5 126.775 221.5ZM143.024 235V217.5H146.274V232.25H155.424V235H143.024ZM165.689 235V232.3L165.514 231.725V227C165.514 226.083 165.239 225.375 164.689 224.875C164.139 224.358 163.306 224.1 162.189 224.1C161.439 224.1 160.697 224.217 159.964 224.45C159.247 224.683 158.639 225.008 158.139 225.425L156.914 223.15C157.631 222.6 158.481 222.192 159.464 221.925C160.464 221.642 161.497 221.5 162.564 221.5C164.497 221.5 165.989 221.967 167.039 222.9C168.106 223.817 168.639 225.242 168.639 227.175V235H165.689ZM161.489 235.175C160.489 235.175 159.614 235.008 158.864 234.675C158.114 234.325 157.531 233.85 157.114 233.25C156.714 232.633 156.514 231.942 156.514 231.175C156.514 230.425 156.689 229.75 157.039 229.15C157.406 228.55 157.997 228.075 158.814 227.725C159.631 227.375 160.714 227.2 162.064 227.2H165.939V229.275H162.289C161.222 229.275 160.506 229.45 160.139 229.8C159.772 230.133 159.589 230.55 159.589 231.05C159.589 231.617 159.814 232.067 160.264 232.4C160.714 232.733 161.339 232.9 162.139 232.9C162.906 232.9 163.589 232.725 164.189 232.375C164.806 232.025 165.247 231.508 165.514 230.825L166.039 232.7C165.739 233.483 165.197 234.092 164.414 234.525C163.647 234.958 162.672 235.175 161.489 235.175ZM179.975 221.5C181.041 221.5 181.991 221.708 182.825 222.125C183.675 222.542 184.341 223.183 184.825 224.05C185.308 224.9 185.55 226 185.55 227.35V235H182.425V227.75C182.425 226.567 182.141 225.683 181.575 225.1C181.025 224.517 180.25 224.225 179.25 224.225C178.516 224.225 177.866 224.375 177.3 224.675C176.733 224.975 176.291 225.425 175.975 226.025C175.675 226.608 175.525 227.35 175.525 228.25V235H172.4V221.65H175.375V225.25L174.85 224.15C175.316 223.3 175.991 222.65 176.875 222.2C177.775 221.733 178.808 221.5 179.975 221.5ZM194.289 235.175C192.822 235.175 191.689 234.8 190.889 234.05C190.089 233.283 189.689 232.158 189.689 230.675V218.7H192.814V230.6C192.814 231.233 192.972 231.725 193.289 232.075C193.622 232.425 194.081 232.6 194.664 232.6C195.364 232.6 195.947 232.417 196.414 232.05L197.289 234.275C196.922 234.575 196.472 234.8 195.939 234.95C195.406 235.1 194.856 235.175 194.289 235.175ZM187.489 224.25V221.75H196.389V224.25H187.489ZM205.445 235.175C203.962 235.175 202.662 234.883 201.545 234.3C200.445 233.7 199.587 232.883 198.97 231.85C198.37 230.817 198.07 229.642 198.07 228.325C198.07 226.992 198.362 225.817 198.945 224.8C199.545 223.767 200.362 222.958 201.395 222.375C202.445 221.792 203.637 221.5 204.97 221.5C206.27 221.5 207.428 221.783 208.445 222.35C209.462 222.917 210.262 223.717 210.845 224.75C211.428 225.783 211.72 227 211.72 228.4C211.72 228.533 211.712 228.683 211.695 228.85C211.695 229.017 211.687 229.175 211.67 229.325H200.545V227.25H210.02L208.795 227.9C208.812 227.133 208.653 226.458 208.32 225.875C207.987 225.292 207.528 224.833 206.945 224.5C206.378 224.167 205.72 224 204.97 224C204.203 224 203.528 224.167 202.945 224.5C202.378 224.833 201.928 225.3 201.595 225.9C201.278 226.483 201.12 227.175 201.12 227.975V228.475C201.12 229.275 201.303 229.983 201.67 230.6C202.037 231.217 202.553 231.692 203.22 232.025C203.887 232.358 204.653 232.525 205.52 232.525C206.27 232.525 206.945 232.408 207.545 232.175C208.145 231.942 208.678 231.575 209.145 231.075L210.82 233C210.22 233.7 209.462 234.242 208.545 234.625C207.645 234.992 206.612 235.175 205.445 235.175ZM214.472 235V221.65H217.447V225.325L217.097 224.25C217.497 223.35 218.122 222.667 218.972 222.2C219.839 221.733 220.914 221.5 222.197 221.5V224.475C222.064 224.442 221.939 224.425 221.822 224.425C221.705 224.408 221.589 224.4 221.472 224.4C220.289 224.4 219.347 224.75 218.647 225.45C217.947 226.133 217.597 227.158 217.597 228.525V235H214.472ZM232.173 221.5C233.24 221.5 234.19 221.708 235.023 222.125C235.873 222.542 236.54 223.183 237.023 224.05C237.506 224.9 237.748 226 237.748 227.35V235H234.623V227.75C234.623 226.567 234.34 225.683 233.773 225.1C233.223 224.517 232.448 224.225 231.448 224.225C230.715 224.225 230.065 224.375 229.498 224.675C228.931 224.975 228.49 225.425 228.173 226.025C227.873 226.608 227.723 227.35 227.723 228.25V235H224.598V221.65H227.573V225.25L227.048 224.15C227.515 223.3 228.19 222.65 229.073 222.2C229.973 221.733 231.006 221.5 232.173 221.5ZM121.108 265.25C119.741 265.25 118.483 265.033 117.333 264.6C116.2 264.15 115.208 263.525 114.358 262.725C113.508 261.908 112.85 260.95 112.383 259.85C111.916 258.75 111.683 257.55 111.683 256.25C111.683 254.95 111.916 253.75 112.383 252.65C112.85 251.55 113.508 250.6 114.358 249.8C115.225 248.983 116.233 248.358 117.383 247.925C118.533 247.475 119.791 247.25 121.158 247.25C122.641 247.25 123.975 247.492 125.158 247.975C126.358 248.458 127.366 249.167 128.183 250.1L126.133 252.1C125.45 251.417 124.708 250.917 123.908 250.6C123.125 250.267 122.258 250.1 121.308 250.1C120.391 250.1 119.541 250.25 118.758 250.55C117.975 250.85 117.3 251.275 116.733 251.825C116.166 252.375 115.725 253.025 115.408 253.775C115.108 254.525 114.958 255.35 114.958 256.25C114.958 257.133 115.108 257.95 115.408 258.7C115.725 259.45 116.166 260.108 116.733 260.675C117.3 261.225 117.966 261.65 118.733 261.95C119.5 262.25 120.35 262.4 121.283 262.4C122.15 262.4 122.983 262.267 123.783 262C124.6 261.717 125.375 261.25 126.108 260.6L127.958 263.025C127.041 263.758 125.975 264.317 124.758 264.7C123.558 265.067 122.341 265.25 121.108 265.25ZM124.883 262.6V256.05H127.958V263.025L124.883 262.6ZM131.695 265V251.65H134.67V255.325L134.32 254.25C134.72 253.35 135.345 252.667 136.195 252.2C137.061 251.733 138.136 251.5 139.42 251.5V254.475C139.286 254.442 139.161 254.425 139.045 254.425C138.928 254.408 138.811 254.4 138.695 254.4C137.511 254.4 136.57 254.75 135.87 255.45C135.17 256.133 134.82 257.158 134.82 258.525V265H131.695ZM147.698 265.175C146.332 265.175 145.115 264.883 144.048 264.3C142.982 263.7 142.14 262.883 141.523 261.85C140.907 260.817 140.598 259.642 140.598 258.325C140.598 256.992 140.907 255.817 141.523 254.8C142.14 253.767 142.982 252.958 144.048 252.375C145.115 251.792 146.332 251.5 147.698 251.5C149.082 251.5 150.307 251.792 151.373 252.375C152.457 252.958 153.298 253.758 153.898 254.775C154.515 255.792 154.823 256.975 154.823 258.325C154.823 259.642 154.515 260.817 153.898 261.85C153.298 262.883 152.457 263.7 151.373 264.3C150.307 264.883 149.082 265.175 147.698 265.175ZM147.698 262.5C148.465 262.5 149.148 262.333 149.748 262C150.348 261.667 150.815 261.183 151.148 260.55C151.498 259.917 151.673 259.175 151.673 258.325C151.673 257.458 151.498 256.717 151.148 256.1C150.815 255.467 150.348 254.983 149.748 254.65C149.148 254.317 148.473 254.15 147.723 254.15C146.957 254.15 146.273 254.317 145.673 254.65C145.09 254.983 144.623 255.467 144.273 256.1C143.923 256.717 143.748 257.458 143.748 258.325C143.748 259.175 143.923 259.917 144.273 260.55C144.623 261.183 145.09 261.667 145.673 262C146.273 262.333 146.948 262.5 147.698 262.5ZM163.212 265.175C162.078 265.175 161.078 264.967 160.212 264.55C159.345 264.117 158.67 263.467 158.187 262.6C157.703 261.717 157.462 260.608 157.462 259.275V251.65H160.587V258.85C160.587 260.05 160.853 260.95 161.387 261.55C161.937 262.133 162.712 262.425 163.712 262.425C164.445 262.425 165.078 262.275 165.612 261.975C166.162 261.675 166.587 261.225 166.887 260.625C167.203 260.025 167.362 259.283 167.362 258.4V251.65H170.487V265H167.512V261.4L168.037 262.5C167.587 263.367 166.928 264.033 166.062 264.5C165.195 264.95 164.245 265.175 163.212 265.175ZM181.728 265.175C180.645 265.175 179.653 264.925 178.753 264.425C177.87 263.925 177.162 263.175 176.628 262.175C176.112 261.158 175.853 259.875 175.853 258.325C175.853 256.758 176.103 255.475 176.603 254.475C177.12 253.475 177.82 252.733 178.703 252.25C179.587 251.75 180.595 251.5 181.728 251.5C183.045 251.5 184.203 251.783 185.203 252.35C186.22 252.917 187.02 253.708 187.603 254.725C188.203 255.742 188.503 256.942 188.503 258.325C188.503 259.708 188.203 260.917 187.603 261.95C187.02 262.967 186.22 263.758 185.203 264.325C184.203 264.892 183.045 265.175 181.728 265.175ZM174.328 269.85V251.65H177.303V254.8L177.203 258.35L177.453 261.9V269.85H174.328ZM181.378 262.5C182.128 262.5 182.795 262.333 183.378 262C183.978 261.667 184.453 261.183 184.803 260.55C185.153 259.917 185.328 259.175 185.328 258.325C185.328 257.458 185.153 256.717 184.803 256.1C184.453 255.467 183.978 254.983 183.378 254.65C182.795 254.317 182.128 254.15 181.378 254.15C180.628 254.15 179.953 254.317 179.353 254.65C178.753 254.983 178.278 255.467 177.928 256.1C177.578 256.717 177.403 257.458 177.403 258.325C177.403 259.175 177.578 259.917 177.928 260.55C178.278 261.183 178.753 261.667 179.353 262C179.953 262.333 180.628 262.5 181.378 262.5Z" fill="#00304B"/>
<defs>
<linearGradient id="paint0_linear_3334_113" x1="152.9" y1="46.2" x2="152.9" y2="199.4" gradientUnits="userSpaceOnUse">
<stop stop-color="#0096B4"/>
<stop offset="0.5" stop-color="#1B4965"/>
<stop offset="1" stop-color="#0A1628"/>
</linearGradient>
<linearGradient id="paint1_linear_3334_113" x1="150.08" y1="92" x2="150.08" y2="148" gradientUnits="userSpaceOnUse">
<stop stop-color="#00B4D8"/>
<stop offset="0.5" stop-color="#1B4965"/>
<stop offset="1" stop-color="#03071E"/>
</linearGradient>
<linearGradient id="paint2_linear_3334_113" x1="86.5" y1="172" x2="86.5" y2="192" gradientUnits="userSpaceOnUse">
<stop stop-color="#0098B6"/>
<stop offset="1" stop-color="#00304B"/>
</linearGradient>
</defs>
</svg>
