<svg width="400" height="400" viewBox="0 0 400 400" fill="none" xmlns="http://www.w3.org/2000/svg">
<rect width="400" height="400" fill="#00304B"/>
<path d="M163.037 129.5L163.187 129.683L231.9 213.536V129.5H264.9V270.5H237.563L237.414 270.317L168.5 186.423V270.5H135.5V129.5H163.037Z" fill="white" stroke="white"/>
<path d="M49.2148 350.433L49.2891 350.711L49.5674 350.785L67.0781 355.5L49.5674 360.215L49.2891 360.289L49.2148 360.567L44.5 378.078L39.7852 360.567L39.7109 360.289L39.4326 360.215L21.9209 355.5L39.4326 350.785L39.7109 350.711L39.7852 350.433L44.5 332.921L49.2148 350.433Z" fill="white" stroke="white"/>
<path d="M20 280V20H380V380H120" stroke="white" stroke-width="35" stroke-linecap="square"/>
</svg>
